<svg class="svg-icon" style="width: 1em; height: 1em;vertical-align: middle;fill: currentColor;overflow: hidden;" viewBox="0 0 1024 1024" version="1.1" xmlns="http://www.w3.org/2000/svg"><path d="M512 648.384c86.08 0 155.84-69.824 155.84-155.904L667.84 219.84C667.84 133.76 598.08 64 512 64S356.16 133.76 356.16 219.84l0 272.704C356.16 578.56 425.92 648.384 512 648.384zM813.44 531.52l-41.408 0C738.368 643.904 635.328 726.272 512 726.272s-226.368-82.368-260.032-194.752L210.56 531.52c31.488 122.048 134.976 214.4 262.528 230.4l0 120.192L356.16 882.112 356.16 960l311.616 0 0-77.952L550.912 882.048l0-120.192C678.464 745.856 782.016 653.568 813.44 531.52z" fill="#FFFFFF" /></svg>