<svg width="61" height="61" viewBox="0 0 61 61" fill="none" xmlns="http://www.w3.org/2000/svg">
<rect x="0.767273" y="0.643066" width="60.1053" height="60.2491" rx="11" fill="black"/>
<path d="M21.3839 36.9676H28.3919V41.7676H15.1119V19.2076H21.3839V36.9676ZM48.6547 26.7276C48.6547 28.0929 48.3347 29.3409 47.6947 30.4716C47.076 31.5809 46.1267 32.4769 44.8467 33.1596C43.588 33.8209 42.0414 34.1516 40.2067 34.1516H37.1027V41.7676H30.8307V19.2076H40.2067C42.02 19.2076 43.556 19.5276 44.8147 20.1676C46.0947 20.8076 47.0547 21.6929 47.6947 22.8236C48.3347 23.9542 48.6547 25.2556 48.6547 26.7276ZM39.5987 29.1596C41.3694 29.1596 42.2547 28.3489 42.2547 26.7276C42.2547 25.0849 41.3694 24.2636 39.5987 24.2636H37.1027V29.1596H39.5987Z" fill="url(#paint0_linear_14_9)"/>
<defs>
<linearGradient id="paint0_linear_14_9" x1="13.3199" y1="44.2779" x2="54.2041" y2="32.4542" gradientUnits="userSpaceOnUse">
<stop stop-color="#74D9F9"/>
<stop offset="1" stop-color="#0074FF"/>
</linearGradient>
</defs>
</svg>
